<svg width="19" height="19" viewBox="0 0 19 19" fill="none" xmlns="http://www.w3.org/2000/svg">
<path d="M12.9 6.09947V10.3495C12.9 11.0258 13.1687 11.6744 13.6469 12.1526C14.1251 12.6308 14.7737 12.8995 15.45 12.8995C16.1263 12.8995 16.7749 12.6308 17.2531 12.1526C17.7313 11.6744 18 11.0258 18 10.3495V9.49947C17.9999 7.58104 17.3508 5.71908 16.1583 4.21632C14.9658 2.71357 13.3 1.65841 11.4317 1.22243C9.56352 0.786437 7.60275 0.995258 5.86825 1.81493C4.13375 2.63461 2.72754 4.01693 1.87828 5.73713C1.02901 7.45734 0.786629 9.41425 1.19055 11.2897C1.59447 13.1651 2.62094 14.8487 4.10304 16.0668C5.58515 17.2849 7.43572 17.9658 9.35386 17.9987C11.272 18.0317 13.1449 17.4149 14.668 16.2485M12.9 9.49947C12.9 11.3772 11.3778 12.8995 9.50001 12.8995C7.62224 12.8995 6.10001 11.3772 6.10001 9.49947C6.10001 7.6217 7.62224 6.09947 9.50001 6.09947C11.3778 6.09947 12.9 7.6217 12.9 9.49947Z" stroke="url(#paint0_linear)" stroke-linecap="round" stroke-linejoin="round"/>
<defs>
<linearGradient id="paint0_linear" x1="1" y1="9.5" x2="18" y2="9.5" gradientUnits="userSpaceOnUse">
<stop stop-color="#4284DB"/>
<stop offset="1" stop-color="#29EAC4"/>
</linearGradient>
</defs>
</svg>
