<svg width="18" height="18" viewBox="0 0 18 18" fill="none" xmlns="http://www.w3.org/2000/svg">
<path d="M8.92857 6.85714H10.7143V4.28571H13.3929V2.57143H10.7143V0H8.92857V2.57143H6.25V4.28571H8.92857V6.85714ZM5.35714 14.5714C4.375 14.5714 3.58036 15.3429 3.58036 16.2857C3.58036 17.2286 4.375 18 5.35714 18C6.33929 18 7.14286 17.2286 7.14286 16.2857C7.14286 15.3429 6.33929 14.5714 5.35714 14.5714ZM14.2857 14.5714C13.3036 14.5714 12.5089 15.3429 12.5089 16.2857C12.5089 17.2286 13.3036 18 14.2857 18C15.2679 18 16.0714 17.2286 16.0714 16.2857C16.0714 15.3429 15.2679 14.5714 14.2857 14.5714ZM5.50893 11.7857L5.53571 11.6829L6.33929 10.2857H12.9911C13.6607 10.2857 14.25 9.93429 14.5536 9.40286L18 3.39429L16.4464 2.57143H16.4375L15.4554 4.28571L12.9911 8.57143H6.72321L6.60714 8.34L4.60714 4.28571L3.75893 2.57143L2.91964 0.857143H0V2.57143H1.78571L5 9.07714L3.79464 11.1771C3.65179 11.4171 3.57143 11.7 3.57143 12C3.57143 12.9429 4.375 13.7143 5.35714 13.7143H16.0714V12H5.73214C5.61607 12 5.50893 11.9057 5.50893 11.7857Z" fill="black"/>
</svg>
