<svg width="22" height="16" viewBox="0 0 22 16" fill="none" xmlns="http://www.w3.org/2000/svg">
<path d="M20.5979 0.443697C20.4584 0.303105 20.2925 0.191513 20.1097 0.11536C19.927 0.039207 19.7309 0 19.5329 0C19.3349 0 19.1388 0.039207 18.956 0.11536C18.7732 0.191513 18.6073 0.303105 18.4679 0.443697L7.29288 11.6337L2.59788 6.9237C2.4531 6.78384 2.28219 6.67387 2.09491 6.60006C1.90762 6.52626 1.70764 6.49006 1.50637 6.49354C1.3051 6.49703 1.10648 6.54012 0.921864 6.62036C0.737247 6.7006 0.570241 6.81642 0.430383 6.9612C0.290526 7.10598 0.180555 7.27689 0.106749 7.46417C0.0329429 7.65146 -0.00325282 7.85144 0.000229378 8.05271C0.00371158 8.25398 0.0468033 8.4526 0.127044 8.63722C0.207284 8.82183 0.323101 8.98884 0.467884 9.1287L6.22788 14.8887C6.36733 15.0293 6.53323 15.1409 6.71602 15.217C6.89881 15.2932 7.09487 15.3324 7.29288 15.3324C7.4909 15.3324 7.68696 15.2932 7.86975 15.217C8.05254 15.1409 8.21844 15.0293 8.35788 14.8887L20.5979 2.6487C20.7501 2.50823 20.8717 2.33776 20.9548 2.14801C21.0379 1.95826 21.0808 1.75335 21.0808 1.5462C21.0808 1.33904 21.0379 1.13414 20.9548 0.944388C20.8717 0.754639 20.7501 0.584161 20.5979 0.443697Z" fill="white"/>
</svg>
