<svg width="55" height="70" viewBox="0 0 55 70" fill="none" xmlns="http://www.w3.org/2000/svg">
<path d="M50.7692 17.5H50.3726L48.6538 39.375H37.8786C37.3938 36.8685 36.1819 34.7835 34.2428 33.1201C32.3037 31.4567 30.0561 30.625 27.5 30.625C24.9439 30.625 22.6963 31.4567 20.7572 33.1201C18.8181 34.7835 17.6062 36.8685 17.1214 39.375H6.34615L4.6274 17.5H4.23077C3.04087 17.5 2.03826 17.0785 1.22296 16.2354C0.407652 15.3923 0 14.3669 0 13.1592C0 11.9515 0.407652 10.9147 1.22296 10.0488C2.03826 9.18294 3.04087 8.75 4.23077 8.75V4.375C4.23077 3.14453 4.63842 2.10775 5.45373 1.26465C6.26903 0.421549 7.27163 0 8.46154 0H46.5385C47.6843 0 48.6759 0.421549 49.5132 1.26465C50.3506 2.10775 50.7692 3.14453 50.7692 4.375V8.75C51.9151 8.75 52.9067 9.18294 53.744 10.0488C54.5813 10.9147 55 11.9515 55 13.1592C55 14.3669 54.5813 15.3923 53.744 16.2354C52.9067 17.0785 51.9151 17.5 50.7692 17.5ZM17.1214 43.75C17.6062 46.2565 18.8181 48.3415 20.7572 50.0049C22.6963 51.6683 24.9439 52.5 27.5 52.5C30.0561 52.5 32.3037 51.6683 34.2428 50.0049C36.1819 48.3415 37.3938 46.2565 37.8786 43.75H48.3233L46.5385 65.625C46.3622 66.7188 45.8884 67.7214 45.1172 68.6328C44.346 69.5443 43.4095 70 42.3077 70H12.6923C11.5905 70 10.654 69.5443 9.88281 68.6328C9.11158 67.7214 8.63782 66.7188 8.46154 65.625L6.67668 43.75H17.1214Z" fill="black"/>
</svg>
