<svg width="22" height="14" viewBox="0 0 22 14" fill="none" xmlns="http://www.w3.org/2000/svg">
<path d="M10.7951 0.142578C7.08362 0.142578 3.27648 2.29067 0.279339 6.58686C0.193789 6.71084 0.146908 6.8574 0.144619 7.00801C0.142331 7.15862 0.184738 7.30653 0.266482 7.43305C2.56934 11.0378 6.32553 13.8569 10.7951 13.8569C15.216 13.8569 19.0493 11.0292 21.3565 7.41639C21.4363 7.29234 21.4788 7.14795 21.4788 7.00043C21.4788 6.85292 21.4363 6.70852 21.3565 6.58448C19.0441 3.01305 15.1827 0.142578 10.7951 0.142578Z" fill="white"/>
<path d="M10.8095 10.8095C12.9135 10.8095 14.619 9.10389 14.619 6.99995C14.619 4.89601 12.9135 3.19043 10.8095 3.19043C8.70558 3.19043 7 4.89601 7 6.99995C7 9.10389 8.70558 10.8095 10.8095 10.8095Z" fill="url(#paint0_linear)"/>
<defs>
<linearGradient id="paint0_linear" x1="1.16787e-07" y1="7" x2="19" y2="7" gradientUnits="userSpaceOnUse">
<stop stop-color="#4284DB"/>
<stop offset="1" stop-color="#29EAC4"/>
</linearGradient>
</defs>
</svg>
