<svg width="63" height="65" viewBox="0 0 63 65" fill="none" xmlns="http://www.w3.org/2000/svg">
<path d="M40.4869 55C40.4869 59.9711 37.6752 64 32.8619 64H14.8887C10.0754 64 7.26367 59.9711 7.26367 55" stroke="black" stroke-width="2" stroke-miterlimit="10" stroke-linecap="round"/>
<path d="M42.3929 43.75C44.7988 43.75 46.75 46.2686 46.75 49.375C46.75 52.4814 44.7988 55 42.3929 55H5.35714C2.95118 55 1 52.4814 1 49.375C1 46.2686 2.95118 43.75 5.35714 43.75" stroke="black" stroke-width="2" stroke-miterlimit="10" stroke-linecap="round"/>
<path d="M43.4821 43.75H21.0578C20.7693 43.7501 20.4926 43.8685 20.2885 44.0791L16.6353 47.852C16.5848 47.9043 16.5247 47.9458 16.4586 47.9741C16.3924 48.0024 16.3216 48.017 16.25 48.017C16.1784 48.017 16.1076 48.0024 16.0414 47.9741C15.9753 47.9458 15.9152 47.9043 15.8647 47.852L12.2115 44.0791C12.0074 43.8685 11.7307 43.7501 11.4422 43.75H4.26786C3.40117 43.75 2.56998 43.3944 1.95713 42.7615C1.34429 42.1285 1 41.2701 1 40.375V40.375C1 39.4799 1.34429 38.6215 1.95713 37.9885C2.56998 37.3556 3.40117 37 4.26786 37H43.4821C44.3488 37 45.18 37.3556 45.7929 37.9885C46.4057 38.6215 46.75 39.4799 46.75 40.375C46.75 41.2701 46.4057 42.1285 45.7929 42.7615C45.18 43.3944 44.3488 43.75 43.4821 43.75Z" stroke="black" stroke-width="2" stroke-miterlimit="10" stroke-linecap="round"/>
<path d="M5.35742 35.3125V35.2816C5.35742 27.5472 11.4847 23.5 18.9735 23.5H28.7771C36.2659 23.5 42.3931 27.5781 42.3931 35.3125V35.2816" stroke="black" stroke-width="2" stroke-miterlimit="10" stroke-linecap="round"/>
<path d="M29.457 12.25L30.4701 21.2458" stroke="black" stroke-width="2" stroke-miterlimit="10" stroke-linecap="round"/>
<path d="M31.5 64H50.4685C51.5678 64 52.6264 63.5708 53.4322 62.7986C54.2379 62.0264 54.7313 60.9682 54.8134 59.8361L59.6853 12.25" stroke="black" stroke-width="2" stroke-miterlimit="10" stroke-linecap="round"/>
<path d="M46.75 12.25L48.9286 3.25L55.3281 1" stroke="black" stroke-width="2" stroke-linecap="round" stroke-linejoin="round"/>
<path d="M27.1426 12.25H61.9997" stroke="black" stroke-width="2" stroke-miterlimit="10" stroke-linecap="round"/>
</svg>
