<svg width="20" height="18" viewBox="0 0 20 18" fill="none" xmlns="http://www.w3.org/2000/svg">
<path d="M9.65751 16.3643L10 16.6863L10.3425 16.3643L11.1517 15.6035C11.7332 15.1086 12.296 14.6379 12.8358 14.1864C14.5271 12.7717 15.9929 11.5458 17.1007 10.3555C18.5822 8.76367 19.5 7.15937 19.5 5.13461C19.5 4.07557 19.1683 2.91656 18.3721 2.01514C17.5653 1.10169 16.3227 0.5 14.6023 0.5C13.6862 0.5 12.6766 0.892382 11.8427 1.4325C11.1232 1.89854 10.4653 2.51961 10.0948 3.19231H10H9.90343C9.53028 2.52076 8.87333 1.89951 8.15381 1.43271C7.32125 0.892575 6.31407 0.5 5.39773 0.5C3.67007 0.5 2.42703 1.131 1.62304 2.0688C0.830871 2.99281 0.5 4.1729 0.5 5.23077C0.5 7.21114 1.4213 8.79205 2.90067 10.3691C4.00009 11.5412 5.45244 12.7554 7.12853 14.1567C7.67917 14.6171 8.25397 15.0976 8.84833 15.6035L9.65751 16.3643Z" fill="#EC001C" stroke="#EC001C"/>
</svg>
