<svg width="20" height="22" viewBox="0 0 20 22" fill="none" xmlns="http://www.w3.org/2000/svg">
<path d="M7 20.1994V12.1994C7 11.0948 7.89543 10.1994 9 10.1994H11C12.1046 10.1994 13 11.0948 13 12.1994V20.1994M19 18.1994V8.66667C19 7.7409 18.5726 6.86698 17.8418 6.29861L11.8418 1.63194C10.7585 0.789353 9.24151 0.789351 8.15818 1.63194L2.15818 6.29861C1.42742 6.86698 1 7.7409 1 8.66667V18.1994C1 18.7298 1.21071 19.2386 1.58579 19.6136C1.96086 19.9887 2.46957 20.1994 3 20.1994H17C17.5304 20.1994 18.0391 19.9887 18.4142 19.6136C18.7893 19.2386 19 18.7298 19 18.1994Z" stroke="black" stroke-width="2" stroke-linecap="round" stroke-linejoin="round"/>
</svg>
