<svg width="11" height="18" viewBox="0 0 11 18" fill="none" xmlns="http://www.w3.org/2000/svg">
<path d="M9.90373 17.2889C10.4138 16.7902 10.4138 15.9817 9.90373 15.4831L2.51577 8.25995C2.00574 7.7613 1.17881 7.7613 0.668779 8.25995C0.158747 8.75861 0.158746 9.56708 0.668778 10.0657L8.05674 17.2889C8.56677 17.7875 9.3937 17.7875 9.90373 17.2889Z" fill="black"/>
<path d="M0.668778 10.0657C0.158746 9.56708 0.158747 8.75861 0.668779 8.25995L8.05673 1.03683C8.56677 0.538179 9.39369 0.538179 9.90372 1.03683C10.4138 1.53548 10.4138 2.34396 9.90372 2.84261L2.51576 10.0657C2.00573 10.5644 1.17881 10.5644 0.668778 10.0657Z" fill="black"/>
</svg>
