<svg width="19" height="24" viewBox="0 0 19 24" fill="none" xmlns="http://www.w3.org/2000/svg">
<path d="M7.47509 16L11.625 12M11.625 12L7.47509 8M11.625 12H1" stroke="black" stroke-width="1.8" stroke-linecap="round" stroke-linejoin="round"/>
<path d="M5.0875 18.5C5.0875 18.003 4.68456 17.6 4.1875 17.6C3.69045 17.6 3.2875 18.003 3.2875 18.5H5.0875ZM4.1875 20H3.2875H4.1875ZM4.1875 4H3.2875V4L4.1875 4ZM3.2875 5.50002C3.28751 5.99707 3.69045 6.40001 4.18751 6.40001C4.68456 6.40001 5.08751 5.99707 5.0875 5.50001L3.2875 5.50002ZM3.2875 18.5L3.2875 20H5.0875L5.0875 18.5H3.2875ZM7.14732 0.1C5.0042 0.1 3.2875 1.85757 3.2875 4H5.0875C5.0875 2.82872 6.02112 1.9 7.14732 1.9V0.1ZM15.0402 0.1H7.14732V1.9H15.0402V0.1ZM18.9 4C18.9 1.85757 17.1833 0.1 15.0402 0.1V1.9C16.1664 1.9 17.1 2.82872 17.1 4H18.9ZM18.9 20V4H17.1V20H18.9ZM15.0402 23.9C17.1833 23.9 18.9 22.1424 18.9 20H17.1C17.1 21.1713 16.1664 22.1 15.0402 22.1V23.9ZM7.14732 23.9H15.0402V22.1H7.14732V23.9ZM3.2875 20C3.2875 22.1424 5.0042 23.9 7.14732 23.9V22.1C6.02111 22.1 5.0875 21.1713 5.0875 20H3.2875ZM3.2875 4L3.2875 5.50002L5.0875 5.50001L5.0875 4L3.2875 4Z" fill="black"/>
</svg>
