<svg width="23" height="25" viewBox="0 0 23 25" fill="none" xmlns="http://www.w3.org/2000/svg">
<path d="M5.29249 16L1.14258 12M1.14258 12L5.29249 8M1.14258 12H11.7676" stroke="black" stroke-width="1.8" stroke-linecap="round" stroke-linejoin="round"/>
<path d="M8.85508 18.7861C8.85508 18.2891 8.45214 17.8861 7.95508 17.8861C7.45803 17.8861 7.05508 18.2891 7.05508 18.7861H8.85508ZM7.95508 20.2861H7.05508H7.95508ZM7.95508 4.28613H7.05508V4.28614L7.95508 4.28613ZM7.05508 5.78615C7.05508 6.28321 7.45803 6.68615 7.95508 6.68615C8.45214 6.68614 8.85508 6.2832 8.85508 5.78614L7.05508 5.78615ZM7.05508 18.7861L7.05508 20.2861H8.85508L8.85508 18.7861H7.05508ZM10.9149 0.386133C8.77178 0.386133 7.05508 2.1437 7.05508 4.28613H8.85508C8.85508 3.11486 9.78869 2.18613 10.9149 2.18613V0.386133ZM18.8078 0.386133H10.9149V2.18613H18.8078V0.386133ZM22.6676 4.28613C22.6676 2.1437 20.9509 0.386133 18.8078 0.386133V2.18613C19.934 2.18613 20.8676 3.11486 20.8676 4.28613H22.6676ZM22.6676 20.2861V4.28613H20.8676V20.2861H22.6676ZM18.8078 24.1861C20.9509 24.1861 22.6676 22.4286 22.6676 20.2861H20.8676C20.8676 21.4574 19.934 22.3861 18.8078 22.3861V24.1861ZM10.9149 24.1861H18.8078V22.3861H10.9149V24.1861ZM7.05508 20.2861C7.05508 22.4286 8.77178 24.1861 10.9149 24.1861V22.3861C9.78869 22.3861 8.85508 21.4574 8.85508 20.2861H7.05508ZM7.05508 4.28614L7.05508 5.78615L8.85508 5.78614L8.85508 4.28613L7.05508 4.28614Z" fill="black"/>
</svg>
