<svg width="1807" height="844" viewBox="0 0 1807 844" fill="none" xmlns="http://www.w3.org/2000/svg">
<path d="M245.923 641.732C198.759 641.732 156.605 631.133 119.463 609.936C82.3215 588.739 53.1382 559.595 31.9143 522.5C10.6901 485.405 0.078125 443.305 0.078125 396.204C0.078125 348.51 10.6901 306.116 31.9143 269.021C53.1382 231.928 82.3215 202.783 119.463 181.586C156.605 160.389 198.759 149.791 245.923 149.791C293.088 149.791 334.947 160.389 371.499 181.586C408.642 202.783 437.825 231.928 459.048 269.021C480.273 306.116 491.18 348.51 491.77 396.204C491.77 443.305 480.863 485.405 459.048 522.5C437.825 559.595 408.642 588.739 371.499 609.936C334.947 631.133 293.088 641.732 245.923 641.732ZM245.923 579.908C280.118 579.908 310.774 571.958 337.894 556.06C365.013 540.162 386.239 518.379 401.566 490.704C416.895 463.032 424.559 431.531 424.559 396.204C424.559 360.876 416.895 329.375 401.566 301.701C386.239 273.439 365.013 251.359 337.894 235.461C310.774 219.564 280.118 211.615 245.923 211.615C211.729 211.615 181.072 219.564 153.953 235.461C126.833 251.359 105.314 273.439 89.3961 301.701C74.0677 329.375 66.4033 360.876 66.4033 396.204C66.4033 431.531 74.0677 463.032 89.3961 490.704C105.314 518.379 126.833 540.162 153.953 556.06C181.072 571.958 211.729 579.908 245.923 579.908ZM570.259 843.982C559.647 843.982 551.1 840.745 544.613 834.267C538.717 828.379 535.77 820.137 535.77 809.538V392.669C536.36 346.743 547.267 305.527 568.49 269.021C590.305 231.928 619.488 202.783 656.041 181.586C693.183 160.389 734.746 149.791 780.731 149.791C827.897 149.791 870.049 160.684 907.192 182.469C944.334 203.666 973.517 232.812 994.74 269.905C1016.56 307 1027.46 349.099 1027.46 396.204C1027.46 442.719 1016.85 484.521 995.626 521.616C974.99 558.711 946.691 588.15 910.728 609.936C874.766 631.133 834.087 641.732 788.691 641.732C749.191 641.732 713.226 633.487 680.801 617C648.965 599.927 623.321 577.552 603.865 549.88V809.538C603.865 820.137 600.622 828.379 594.136 834.267C588.242 840.745 580.282 843.982 570.259 843.982ZM780.731 579.908C814.927 579.908 845.583 571.958 872.702 556.06C899.822 540.162 921.048 518.379 936.374 490.704C952.294 462.443 960.251 430.942 960.251 396.204C960.251 360.876 952.294 329.375 936.374 301.701C921.048 274.029 899.822 252.242 872.702 236.344C845.583 219.858 814.927 211.615 780.731 211.615C747.128 211.615 716.766 219.858 689.646 236.344C662.524 252.242 641.301 274.029 625.972 301.701C610.645 329.375 602.979 360.876 602.979 396.204C602.979 430.942 610.645 462.443 625.972 490.704C641.301 518.379 662.524 540.162 689.646 556.06C716.766 571.958 747.128 579.908 780.731 579.908ZM1261.84 637.314C1230.59 637.314 1202.59 629.955 1177.83 615.236C1153.66 600.516 1134.5 580.497 1120.35 555.176C1106.2 529.272 1099.12 499.83 1099.12 466.859V34.9759C1099.12 24.9663 1102.07 16.7231 1107.97 10.2464C1114.45 3.76959 1122.71 0.53125 1132.73 0.53125C1142.75 0.53125 1151 3.76959 1157.49 10.2464C1163.97 16.7231 1167.22 24.9663 1167.22 34.9759V466.859C1167.22 496.887 1176.06 521.616 1193.75 541.046C1211.43 559.889 1234.13 569.309 1261.84 569.309H1285.72C1295.15 569.309 1302.81 572.547 1308.71 579.024C1314.6 585.502 1317.55 593.744 1317.55 603.753C1317.55 613.763 1314.02 622.005 1306.94 628.482C1299.87 634.371 1291.02 637.314 1280.41 637.314H1261.84ZM1167.22 231.045C1167.22 220.83 1167.22 214.491 1167.22 206.034C1167.22 199.506 1167.22 200.133 1167.22 191.89C1167.22 183.058 1167.22 186.539 1167.22 179.047C1167.22 173.696 1167.22 160.535 1167.22 171.871H1216.45H1267.15C1275.99 171.871 1283.36 174.815 1289.26 180.703C1295.15 186.002 1298.1 193.068 1298.1 201.9C1298.1 210.143 1295.15 217.208 1289.26 223.096C1283.36 228.395 1275.99 231.045 1267.15 231.045H1167.22ZM1560.17 641.732C1513 641.732 1470.85 631.133 1433.71 609.936C1396.56 588.739 1367.38 559.595 1346.15 522.5C1324.93 485.405 1314.32 443.305 1314.32 396.204C1314.32 348.51 1324.93 306.116 1346.15 269.021C1367.38 231.928 1396.56 202.783 1433.71 181.586C1470.85 160.389 1513 149.791 1560.17 149.791C1607.33 149.791 1649.19 160.389 1685.74 181.586C1722.88 202.783 1752.06 231.928 1773.29 269.021C1794.51 306.116 1805.42 348.51 1806.01 396.204C1806.01 443.305 1795.1 485.405 1773.29 522.5C1752.06 559.595 1722.88 588.739 1685.74 609.936C1649.19 631.133 1607.33 641.732 1560.17 641.732ZM1560.17 579.908C1594.36 579.908 1625.02 571.958 1652.14 556.06C1679.26 540.162 1700.48 518.379 1715.81 490.704C1731.14 463.032 1738.8 431.531 1738.8 396.204C1738.8 360.876 1731.14 329.375 1715.81 301.701C1700.48 273.439 1679.26 251.359 1652.14 235.461C1625.02 219.564 1594.36 211.615 1560.17 211.615C1525.97 211.615 1495.31 219.564 1468.19 235.461C1441.07 251.359 1419.56 273.439 1403.64 301.701C1388.31 329.375 1380.64 360.876 1380.64 396.204C1380.64 431.531 1388.31 463.032 1403.64 490.704C1419.56 518.379 1441.07 540.162 1468.19 556.06C1495.31 571.958 1525.97 579.908 1560.17 579.908Z" fill="url(#paint0_linear)"/>
<defs>
<linearGradient id="paint0_linear" x1="0.078125" y1="422.257" x2="1806.01" y2="422.257" gradientUnits="userSpaceOnUse">
<stop stop-color="#4284DB"/>
<stop offset="1" stop-color="#29EAC4"/>
</linearGradient>
</defs>
</svg>
