<svg width="95" height="95" viewBox="0 0 95 95" fill="none" xmlns="http://www.w3.org/2000/svg">
<path d="M60.42 32.2525L40.0425 52.6775L32.205 44.84C31.7792 44.3428 31.2552 43.9389 30.6659 43.6538C30.0766 43.3687 29.4347 43.2085 28.7805 43.1832C28.1264 43.1579 27.474 43.2682 26.8645 43.507C26.2549 43.7458 25.7013 44.108 25.2384 44.5709C24.7755 45.0338 24.4133 45.5874 24.1745 46.197C23.9357 46.8065 23.8255 47.4588 23.8507 48.113C23.876 48.7672 24.0362 49.4091 24.3213 49.9984C24.6064 50.5877 25.0103 51.1117 25.5075 51.5375L36.67 62.7475C37.1139 63.1877 37.6402 63.536 38.219 63.7724C38.7977 64.0088 39.4174 64.1286 40.0425 64.125C41.2886 64.1198 42.4828 63.625 43.3675 62.7475L67.1175 38.9975C67.5627 38.5559 67.9161 38.0306 68.1573 37.4517C68.3984 36.8729 68.5226 36.2521 68.5226 35.625C68.5226 34.9979 68.3984 34.3771 68.1573 33.7983C67.9161 33.2194 67.5627 32.6941 67.1175 32.2525C66.2276 31.3678 65.0237 30.8712 63.7688 30.8712C62.5139 30.8712 61.31 31.3678 60.42 32.2525ZM47.5 0C38.1054 0 28.9218 2.78583 21.1104 8.00519C13.2991 13.2246 7.21091 20.643 3.61574 29.3225C0.0205808 38.002 -0.920078 47.5527 0.912721 56.7668C2.74552 65.9809 7.26946 74.4446 13.9125 81.0876C20.5554 87.7306 29.0191 92.2545 38.2332 94.0873C47.4473 95.9201 56.998 94.9795 65.6775 91.3843C74.357 87.7891 81.7755 81.7009 86.9948 73.8896C92.2142 66.0783 95 56.8946 95 47.5C95 41.2622 93.7714 35.0855 91.3843 29.3225C88.9972 23.5596 85.4984 18.3232 81.0876 13.9124C76.6768 9.50165 71.4405 6.00282 65.6775 3.61572C59.9145 1.22862 53.7378 0 47.5 0ZM47.5 85.5C39.9843 85.5 32.6374 83.2713 26.3884 79.0958C20.1393 74.9204 15.2687 68.9856 12.3926 62.042C9.51647 55.0984 8.76394 47.4579 10.2302 40.0866C11.6964 32.7153 15.3156 25.9443 20.63 20.6299C25.9444 15.3155 32.7153 11.6964 40.0866 10.2302C47.4579 8.76392 55.0984 9.51645 62.042 12.3926C68.9856 15.2687 74.9204 20.1393 79.0959 26.3883C83.2714 32.6374 85.5 39.9843 85.5 47.5C85.5 57.5782 81.4965 67.2437 74.3701 74.3701C67.2437 81.4964 57.5783 85.5 47.5 85.5Z" fill="url(#paint0_linear)"/>
<defs>
<linearGradient id="paint0_linear" x1="0" y1="47.5" x2="95" y2="47.5" gradientUnits="userSpaceOnUse">
<stop stop-color="#4284DB"/>
<stop offset="1" stop-color="#29EAC4"/>
</linearGradient>
</defs>
</svg>
