<svg width="18" height="18" viewBox="0 0 18 18" fill="none" xmlns="http://www.w3.org/2000/svg">
<path d="M5.5 4.5C5.5 2.56603 7.06603 1 9 1C10.934 1 12.5 2.56603 12.5 4.5C12.5 6.43397 10.934 8 9 8C7.06603 8 5.5 6.43397 5.5 4.5ZM1 14.625C1 14.2442 1.18284 13.8366 1.66207 13.3943C2.1481 12.9457 2.86923 12.5321 3.74546 12.1811C5.49954 11.4784 7.62313 11.125 9 11.125C10.3769 11.125 12.5005 11.4784 14.2545 12.1811C15.1308 12.5321 15.8519 12.9457 16.3379 13.3943C16.8172 13.8366 17 14.2442 17 14.625C17 15.9367 15.9367 17 14.625 17H3.375C2.06332 17 1 15.9367 1 14.625Z" stroke="url(#paint0_linear)" stroke-width="2"/>
<defs>
<linearGradient id="paint0_linear" x1="0" y1="9" x2="18" y2="9" gradientUnits="userSpaceOnUse">
<stop stop-color="#4284DB"/>
<stop offset="1" stop-color="#29EAC4"/>
</linearGradient>
</defs>
</svg>
