<svg width="41" height="40" viewBox="0 0 41 40" fill="none" xmlns="http://www.w3.org/2000/svg">
<ellipse cx="20.1291" cy="20" rx="19.9357" ry="20" fill="white"/>
<path d="M19.0811 12.8V18.95H12.9517C12.3725 18.95 11.9043 19.4209 11.9043 20C11.9043 20.5791 12.3725 21.05 12.9517 21.05H19.0811V27.2C19.0811 27.7791 19.5493 28.25 20.1286 28.25C20.7078 28.25 21.176 27.7791 21.176 27.2V21.05H27.3054C27.8847 21.05 28.3528 20.5791 28.3528 20C28.3528 19.4209 27.8847 18.95 27.3054 18.95H21.176V12.8C21.176 12.2209 20.7078 11.75 20.1286 11.75C19.5493 11.75 19.0811 12.2209 19.0811 12.8Z" fill="#2CDAC5" stroke="#2CDAC5" stroke-width="0.5"/>
</svg>
