<svg width="22" height="20" viewBox="0 0 22 20" fill="none" xmlns="http://www.w3.org/2000/svg">
<path d="M20.9975 1.99789V7.99947H15.543" stroke="black" stroke-width="1.5" stroke-linecap="round" stroke-linejoin="round"/>
<path d="M1 18.0021V12.0005H6.45455" stroke="black" stroke-width="1.5" stroke-linecap="round" stroke-linejoin="round"/>
<path d="M3.28182 6.99921C3.74288 5.56562 4.52648 4.2839 5.55952 3.27365C6.59255 2.2634 7.84133 1.55755 9.18935 1.22195C10.5374 0.886355 11.9407 0.931957 13.2684 1.3545C14.596 1.77704 15.8048 2.56276 16.7818 3.63833L21 7.99947M1 12.0005L5.21818 16.3617C6.19523 17.4372 7.40398 18.223 8.73165 18.6455C10.0593 19.068 11.4626 19.1136 12.8106 18.7781C14.1587 18.4425 15.4075 17.7366 16.4405 16.7263C17.4735 15.7161 18.2571 14.4344 18.7182 13.0008" stroke="black" stroke-width="1.5" stroke-linecap="round" stroke-linejoin="round"/>
</svg>
