<svg width="17" height="17" viewBox="0 0 17 17" fill="none" xmlns="http://www.w3.org/2000/svg">
<path fill-rule="evenodd" clip-rule="evenodd" d="M7.63862 16.6433C7.52556 16.5306 7.43586 16.3966 7.37466 16.2491C7.31346 16.1016 7.28196 15.9435 7.28196 15.7838C7.28196 15.6241 7.31346 15.466 7.37466 15.3185C7.43586 15.171 7.52556 15.0371 7.63862 14.9243L14.0656 8.49968L7.63862 2.07508C7.52574 1.96221 7.43621 1.82821 7.37512 1.68073C7.31403 1.53325 7.28259 1.37518 7.28259 1.21556C7.28259 1.05593 7.31403 0.89786 7.37512 0.750382C7.43621 0.602904 7.52574 0.468903 7.63862 0.356028C7.75149 0.243153 7.8855 0.153616 8.03297 0.0925287C8.18045 0.0314413 8.33852 -3.14667e-09 8.49815 0C8.65778 3.14666e-09 8.81584 0.0314413 8.96332 0.0925287C9.1108 0.153616 9.2448 0.243153 9.35767 0.356028L16.6418 7.64016C16.7549 7.75293 16.8446 7.8869 16.9058 8.03439C16.967 8.18188 16.9985 8.34 16.9985 8.49968C16.9985 8.65937 16.967 8.81748 16.9058 8.96498C16.8446 9.11247 16.7549 9.24644 16.6418 9.35921L9.35767 16.6433C9.2449 16.7564 9.11093 16.8461 8.96344 16.9073C8.81595 16.9685 8.65783 17 8.49815 17C8.33846 17 8.18034 16.9685 8.03285 16.9073C7.88536 16.8461 7.75139 16.7564 7.63862 16.6433Z" fill="black"/>
<path fill-rule="evenodd" clip-rule="evenodd" d="M0 8.49968C0 8.1777 0.127906 7.86891 0.355579 7.64124C0.583252 7.41357 0.892043 7.28566 1.21402 7.28566H13.3542C13.6762 7.28566 13.985 7.41357 14.2127 7.64124C14.4403 7.86891 14.5683 8.1777 14.5683 8.49968C14.5683 8.82166 14.4403 9.13045 14.2127 9.35813C13.985 9.5858 13.6762 9.7137 13.3542 9.7137H1.21402C0.892043 9.7137 0.583252 9.5858 0.355579 9.35813C0.127906 9.13045 0 8.82166 0 8.49968Z" fill="black"/>
</svg>
