<svg width="11" height="18" viewBox="0 0 11 18" fill="none" xmlns="http://www.w3.org/2000/svg">
<path d="M1.09627 17.2889C0.586237 16.7902 0.586237 15.9817 1.09627 15.4831L8.48423 8.25995C8.99426 7.7613 9.82119 7.7613 10.3312 8.25995C10.8413 8.75861 10.8413 9.56708 10.3312 10.0657L2.94326 17.2889C2.43323 17.7875 1.6063 17.7875 1.09627 17.2889Z" fill="white"/>
<path d="M10.3312 10.0657C10.8413 9.56708 10.8413 8.75861 10.3312 8.25995L2.94327 1.03683C2.43323 0.538179 1.60631 0.538179 1.09628 1.03683C0.586244 1.53548 0.586244 2.34396 1.09628 2.84261L8.48424 10.0657C8.99427 10.5644 9.82119 10.5644 10.3312 10.0657Z" fill="white"/>
</svg>
