<svg width="35" height="8" viewBox="0 0 35 8" fill="none" xmlns="http://www.w3.org/2000/svg">
<path d="M15.6886 6.54302C15.4038 5.49471 16.0345 4.41717 17.0973 4.13628L32.4917 0.0674467C33.5545 -0.213448 34.6469 0.408667 34.9316 1.45698C35.2164 2.50529 34.5857 3.58283 33.5229 3.86372L18.1285 7.93255C17.0657 8.21345 15.9734 7.59133 15.6886 6.54302Z" fill="#ECECEC"/>
<path d="M19.3114 6.54302C19.5962 5.49471 18.9655 4.41717 17.9027 4.13628L2.5083 0.0674467C1.44553 -0.213448 0.353143 0.408667 0.0683765 1.45698C-0.21639 2.50529 0.414301 3.58283 1.47706 3.86372L16.8715 7.93255C17.9343 8.21345 19.0266 7.59133 19.3114 6.54302Z" fill="#ECECEC"/>
</svg>
