<svg width="96" height="96" viewBox="0 0 96 96" fill="none" xmlns="http://www.w3.org/2000/svg">
<path d="M60.92 32.7525L40.5425 53.1775L32.705 45.34C32.2792 44.8428 31.7552 44.4389 31.1659 44.1538C30.5766 43.8687 29.9347 43.7085 29.2805 43.6832C28.6264 43.6579 27.974 43.7682 27.3645 44.007C26.7549 44.2458 26.2013 44.608 25.7384 45.0709C25.2755 45.5338 24.9133 46.0874 24.6745 46.697C24.4357 47.3065 24.3255 47.9588 24.3507 48.613C24.376 49.2672 24.5362 49.9091 24.8213 50.4984C25.1064 51.0877 25.5103 51.6117 26.0075 52.0375L37.17 63.2475C37.6139 63.6877 38.1402 64.036 38.719 64.2724C39.2977 64.5088 39.9174 64.6286 40.5425 64.625C41.7886 64.6198 42.9828 64.125 43.8675 63.2475L67.6175 39.4975C68.0627 39.0559 68.4161 38.5306 68.6573 37.9517C68.8984 37.3729 69.0226 36.7521 69.0226 36.125C69.0226 35.4979 68.8984 34.8771 68.6573 34.2983C68.4161 33.7194 68.0627 33.1941 67.6175 32.7525C66.7276 31.8678 65.5237 31.3712 64.2688 31.3712C63.0139 31.3712 61.81 31.8678 60.92 32.7525ZM48 0.5C38.6054 0.5 29.4218 3.28583 21.6104 8.50519C13.7991 13.7246 7.71091 21.143 4.11574 29.8225C0.520581 38.502 -0.420078 48.0527 1.41272 57.2668C3.24552 66.4809 7.76946 74.9446 14.4125 81.5876C21.0554 88.2306 29.5191 92.7545 38.7332 94.5873C47.9473 96.4201 57.498 95.4795 66.1775 91.8843C74.857 88.2891 82.2755 82.2009 87.4948 74.3896C92.7142 66.5783 95.5 57.3946 95.5 48C95.5 41.7622 94.2714 35.5855 91.8843 29.8225C89.4972 24.0596 85.9984 18.8232 81.5876 14.4124C77.1768 10.0016 71.9405 6.50282 66.1775 4.11572C60.4145 1.72862 54.2378 0.5 48 0.5ZM48 86C40.4843 86 33.1374 83.7713 26.8884 79.5958C20.6393 75.4204 15.7687 69.4856 12.8926 62.542C10.0165 55.5984 9.26394 47.9579 10.7302 40.5866C12.1964 33.2153 15.8156 26.4443 21.13 21.1299C26.4444 15.8155 33.2153 12.1964 40.5866 10.7302C47.9579 9.26392 55.5984 10.0164 62.542 12.8926C69.4856 15.7687 75.4204 20.6393 79.5959 26.8883C83.7714 33.1374 86 40.4843 86 48C86 58.0782 81.9965 67.7437 74.8701 74.8701C67.7437 81.9965 58.0783 86 48 86Z" fill="#21EF00"/>
</svg>
