<svg width="20" height="23" viewBox="0 0 20 23" fill="none" xmlns="http://www.w3.org/2000/svg">
<path d="M6.57031 8.21338H8.21315V18.0704H6.57031V8.21338Z" fill="white"/>
<path d="M11.5 8.21338H13.1428V18.0704H11.5V8.21338Z" fill="white"/>
<path d="M0 3.28564V4.92848H1.64284V21.3569C1.64284 21.7926 1.81592 22.2105 2.12402 22.5186C2.43211 22.8266 2.84997 22.9997 3.28568 22.9997H16.4284C16.8641 22.9997 17.282 22.8266 17.5901 22.5186C17.8982 22.2105 18.0712 21.7926 18.0712 21.3569V4.92848H19.7141V3.28564H0ZM3.28568 21.3569V4.92848H16.4284V21.3569H3.28568Z" fill="white"/>
<path d="M6.57031 -0.000488281H13.1417V1.64235H6.57031V-0.000488281Z" fill="white"/>
</svg>
