<svg width="19" height="22" viewBox="0 0 19 22" fill="none" xmlns="http://www.w3.org/2000/svg">
<path d="M18.78 7.95V9.24H0V7.95H13.2C13.68 7.63 14.04 7.3 14.28 6.96C14.54 6.6 14.67 6.19 14.67 5.73C14.67 4.61 14.2 3.7 13.26 3C12.34 2.28 10.97 1.92 9.15 1.92C8.17 1.92 7.17 2.06 6.15 2.34C5.13 2.6 4.18 2.99 3.3 3.51L2.7 1.74C3.6 1.2 4.61 0.779999 5.73 0.479999C6.85 0.16 7.97 0 9.09 0C10.75 0 12.16 0.25 13.32 0.749999C14.5 1.25 15.38 1.94 15.96 2.82C16.56 3.7 16.86 4.69 16.86 5.79C16.86 6.61 16.69 7.33 16.35 7.95H18.78ZM0 12.09H18.78V13.38H5.49C4.99 13.68 4.61 14.03 4.35 14.43C4.09 14.81 3.96 15.26 3.96 15.78C3.96 16.88 4.42 17.78 5.34 18.48C6.28 19.16 7.69 19.5 9.57 19.5C10.95 19.5 12.27 19.28 13.53 18.84C14.79 18.4 15.81 17.83 16.59 17.13L17.31 18.81C16.39 19.61 15.24 20.25 13.86 20.73C12.5 21.19 11.09 21.42 9.63 21.42C7.93 21.42 6.49 21.17 5.31 20.67C4.13 20.17 3.24 19.49 2.64 18.63C2.04 17.75 1.74 16.76 1.74 15.66C1.74 14.76 1.96 14 2.4 13.38H0V12.09Z" fill="black"/>
</svg>
